<?xml version="1.0" encoding="UTF-8"?>
<svg id="Layer_2" data-name="Layer 2" xmlns="http://www.w3.org/2000/svg" viewBox="0 0 515.5 515.24">
  <defs>
    <style>
      .cls-1 {
        fill: #f8f9fa;
      }
      #Layer_1-2 {
        fill: black;
      }
    </style>
  </defs>
  <g id="Layer_1-2" data-name="Layer 1">
    <path d="M257.86,514.16c-84.38,0-168.75-.02-253.12,.08-2.95,0-3.38-.82-3.38-3.52,.07-168.75,.07-337.5-.02-506.25,0-2.95,.81-3.38,3.51-3.38,168.75,.07,337.5,.07,506.25-.02,2.95,0,3.38,.81,3.38,3.51-.07,168.75-.07,337.5,.02,506.25,0,2.95-.81,3.38-3.51,3.38-84.37-.08-168.75-.06-253.12-.06Zm162.99-137.46c.51-.16,.99-.22,1.37-.44,22.19-12.53,44.99-25.31,60.95-45.19,12.42-15.48,9.17-36.86,2.11-54.84-17.38-41.21-34.67-67.89-67.98-98.08-28.58-25.9-61.26-44.66-97.4-57.7-23.54-8.49-47.87-13.31-72.7-15.82-22.2-2.25-44.48-2.33-66.58,.52-26.6,3.43-52.51,9.78-77.34,20.33-29.51,12.54-55.89,29.41-77.03,53.83-4.43,5.12-8.63,10.46-11.95,16.52,2.12-.42,3.94-1.15,5.72-1.98,14.8-6.84,30.25-11.86,46.01-15.88,21.13-5.39,42.62-8.62,64.41-9.48,17.75-.7,35.52-.3,53.08,2.61,4.45,.74,6.81,.7,7.64,1.74,.83,1.05,.13,3.18-1.55,8.27-14.59,44.22,2.7,96.16,45.17,116.82,21.73,10.57,43.99,11.23,66.05,1.83,24.24-10.33,39.86-29.02,48.57-53.69,.85-2.42,1.41-3.68,2.29-3.97,.88-.29,2.08,.39,4.22,1.85,15.51,10.58,30.49,21.85,43.71,35.24,9.78,9.9,18.63,20.57,24.89,33.14,10.37,20.8,10.81,41.26-2.29,61.21-.58,.89-1.56,1.64-1.36,3.14Zm-310.41-54.32c-.21,1.84,.7,2.46,1.34,3.18,4.32,4.85,8.5,9.85,13.06,14.47,27.73,28.1,60.29,48.33,98.06,60.12,33.46,10.44,67.49,13.66,102.18,8.03,24.94-4.05,48.07-12.49,67.74-28.99,22.37-18.76,23.27-49.16,1.99-68.96-4.68-4.36-4.99-4.47-10.18-.94-31.38,21.29-66.32,32.77-103.62,37.89-30.71,4.21-61.3,3.31-91.83-1.69-23.01-3.77-45.51-9.38-67.07-18.44-3.76-1.58-7.59-3.02-11.67-4.64Zm-2.03-127.48c.4,15.17,4.45,29.37,10.26,43.15,5.74,13.64,13.79,25.9,22.72,37.74-26.39-19.21-50.27-41.01-72.37-64.85,12.07,23.11,27.21,43.96,44.87,63.1-22.27-12.5-43.44-26.39-62.7-43.5-.4,1.74,.52,2.4,1.05,3.17,20.65,29.88,45.78,55.11,77.22,73.64,34.43,20.29,71.56,28.09,111.27,23.51,7.91-.91,15.72-2.38,23.45-4.42-.48-.32-.94-.37-1.4-.4-35.66-2.45-63.75-18.66-84.95-47.08-15.01-20.12-23.13-43.27-28.78-67.44-.26-1.12-.06-2.48-1.61-3.46-3.19,22.3,2.36,42.84,10.57,63.11-20.29-23.08-36.27-48.78-49.61-76.27Z"/>
    <path class="cls-1" d="M.09,107.31L.04,.02,111.9,.08c-6.3-.29-50.86-1.6-83.78,32.76C-1.17,63.41-.23,100.26,.09,107.31Z"/>
    <path class="cls-1" d="M107.75,515.16l-107.29,.05,.06-111.86c-.29,6.3-1.6,50.86,32.76,83.78,30.57,29.29,67.41,28.35,74.46,28.03Z"/>
    <path class="cls-1" d="M408.08,.58l107.29-.05-.06,111.86c.29-6.3,1.6-50.86-32.76-83.78C451.98-.68,415.13,.26,408.08,.58Z"/>
    <path class="cls-1" d="M515.41,407.64l.05,107.29-111.86-.06c6.3,.29,50.86,1.6,83.78-32.76,29.29-30.57,28.35-67.41,28.03-74.46Z"/>
  </g>
</svg>
